# xmcd
#
# Track frame offsets:
# 150
# 14657
# 25707
# 39772
# 52277
# 64200
# 74467
# 84902
# 101160
# 112765
# 123415
# 134025
#
# Disc length: 1949 seconds
#
#
# Revision: 0
# Processed by: cddbd v1.5.2PL0 Copyright (c) Steve Scherf et al.
# Submitted via: FreeRIP 2.945 
#
DISCID=a6079b0c
DTITLE=Chitãozinho e Xororó - Galopeira
DYEAR=1980
DGENRE=Vocal
TTITLE0=Galopeira
TTITLE1=Grande Paixão
TTITLE2=Preto e Branco
TTITLE3=Saudação Aos Canoeiros
TTITLE4=Revivendo
TTITLE5=Amor Não é Brinquedo
TTITLE6=Ciranda Do Amor
TTITLE7=Rainha Do Paraná
TTITLE8=Meu Tormento
TTITLE9=Tocando a Boiada
TTITLE10=Canto Do Rouxinol
TTITLE11=Rosa Malvada
EXTD=
EXTT0=
EXTT1=
EXTT2=
EXTT3=
EXTT4=
EXTT5=
EXTT6=
EXTT7=
EXTT8=
EXTT9=
EXTT10=
EXTT11=
PLAYORDER=
